<svg viewBox="0 0 24 24" xmlns="http://www.w3.org/2000/svg" aria-hidden="true"><path fill="currentColor" d="M12 2C6.5 2 2 6.2 2 11.5c0 3.1 1.6 5.8 4 7.4L5 22l4.2-2.1c.9.2 1.8.3 2.8.3 5.5 0 10-4.2 10-9.5S17.5 2 12 2zm0 16.8c-.8 0-1.6-.1-2.3-.3l-.5-.1-2.6 1.3.9-2.8-.3-.5c-1.9-1.2-3.1-3.3-3.1-5.8 0-3.8 3.4-6.9 7.9-6.9s7.9 3.1 7.9 6.9-3.4 6.9-7.9 6.9z"/><path fill="currentColor" d="M8.2 11.2c.9 0 1.6-.6 1.8-1.4.2.8.9 1.4 1.8 1.4s1.6-.6 1.8-1.4c.2.8.9 1.4 1.8 1.4 1.2 0 2.1-.9 2.1-2.1 0-2.5-2.8-4.5-6.3-4.5S5.9 6.6 5.9 9.1c0 1.2.9 2.1 2.1 2.1.9 0 1.6-.6 1.8-1.4.2.8.9 1.4 1.8 1.4z"/></svg>